# xmcd CD database file
#
# Track frame offsets:
#	150
#	20307
#	36590
#
# Disc length: 688 seconds
#
# Revision: 0
# Processed by: cddbd v1.5PL3 Copyright (c) Steve Scherf et al.
# Submitted via: CDex 1.51
#
DISCID=1e02ae03
DTITLE=JUSTY-NASTY - ムーン・ダストに抱かれて
DYEAR=1991
DGENRE=Rock
TTITLE0=ムーン・ダストに抱かれて(Re-MASTER VIRSION)
TTITLE1=そして君は涙を知った(Re-MASTER VIRSION)
TTITLE2=CLOCKWORK(REAL LIVE VIRSION)
EXTD=YEAR: 1991
EXTT0=
EXTT1=
EXTT2=
PLAYORDER=
